<?xml version="1.0" encoding="UTF-8"?><svg id="_レイヤー_2" xmlns="http://www.w3.org/2000/svg" xmlns:xlink="http://www.w3.org/1999/xlink" viewBox="0 0 600 240"><defs><style>.cls-1{stroke:#008db7;}.cls-1,.cls-2{fill:none;}.cls-3{fill:#008db7;}.cls-3,.cls-4,.cls-2,.cls-5{stroke-width:0px;}.cls-6{isolation:isolate;}.cls-7{clip-path:url(#clippath-1);}.cls-5{fill:#eaf2f5;}.cls-8{clip-path:url(#clippath);}</style><clipPath id="clippath"><rect class="cls-2" x="59.85645" y="76" width="137.14355" height="95.97607"/></clipPath><clipPath id="clippath-1"><rect class="cls-2" x="59.75" y="76" width="137.25" height="96"/></clipPath></defs><g id="_レイヤー_1-2"><path class="cls-5" d="M.5,199.5V40.5c0-1.31006.06415-2.61694.19257-3.92072s.32043-2.59802.57599-3.88293c.25555-1.28485.57349-2.55414.9538-3.80774.38031-1.25366.82111-2.48566,1.32245-3.69598s1.06079-2.39319,1.67834-3.54852c.61755-1.1554,1.29022-2.27771,2.01807-3.36694.72778-1.08929,1.50726-2.1402,2.33832-3.15289.83112-1.0127,1.70984-1.98218,2.63617-2.90857.92633-.92633,1.89587-1.80505,2.90857-2.63611,1.01263-.83112,2.0636-1.6106,3.15289-2.33838,1.08923-.72784,2.21155-1.40051,3.36694-2.01807,1.15533-.61755,2.3382-1.177,3.54852-1.67834s2.44232-.94214,3.69598-1.32239c1.2536-.38037,2.52289-.69824,3.80774-.95386,1.28491-.25555,2.57916-.44751,3.88293-.57593s2.61066-.19263,3.92072-.19263h519c1.31006,0,2.61694.06421,3.92065.19263s2.59802.32037,3.88281.57593c1.28491.25562,2.5542.57349,3.80786.95386,1.25366.38025,2.4856.82104,3.69592,1.32239s2.39319,1.06079,3.54858,1.67834c1.15527.61755,2.27759,1.29022,3.36694,2.01807,1.08923.72778,2.14026,1.50726,3.15295,2.33838,1.0127.83105,1.98218,1.70978,2.90845,2.63611.92639.92639,1.80518,1.89587,2.63611,2.90857.83118,1.0127,1.6106,2.0636,2.33838,3.15289.72778,1.08923,1.40051,2.21155,2.01807,3.36694.61755,1.15533,1.177,2.3382,1.67834,3.54852s.94214,2.44232,1.32239,3.69598c.38037,1.2536.69824,2.52289.95386,3.80774.25562,1.28491.44763,2.57916.57593,3.88293.12854,1.30377.19275,2.61066.19275,3.92072v159c0,1.31-.06421,2.61694-.19275,3.92065-.1283,1.30377-.32031,2.59808-.57593,3.88293s-.57349,2.55414-.95386,3.80774c-.38025,1.25366-.82104,2.48566-1.32239,3.69592-.50134,1.21033-1.06079,2.39319-1.67834,3.54858-.61755,1.15533-1.29028,2.27765-2.01807,3.36694-.72778,1.08923-1.5072,2.1402-2.33826,3.15289s-1.70984,1.98218-2.63623,2.90857c-.92627.92633-1.89575,1.80505-2.90857,2.63611-1.01257.83112-2.0636,1.61053-3.15295,2.33838-1.08923.72784-2.21155,1.40051-3.36694,2.01807-1.15527.61755-2.33813,1.177-3.54846,1.67834s-2.44238.94214-3.69592,1.32245c-1.25366.38025-2.52295.69818-3.80786.9538-1.28479.25555-2.5791.44757-3.88281.57599s-2.6106.19263-3.92065.19263H40.5c-1.31006,0-2.61694-.06421-3.92072-.19263s-2.59802-.32043-3.88293-.57599c-1.28485-.25555-2.55414-.57349-3.80774-.9538-1.25366-.38031-2.48566-.82111-3.69598-1.32245s-2.39319-1.06079-3.54852-1.67834c-1.1554-.61755-2.27771-1.29022-3.36694-2.01807-1.08929-.72784-2.14026-1.50726-3.15289-2.33838-1.0127-.83105-1.98224-1.70978-2.90857-2.63611-.92633-.92639-1.80505-1.89587-2.63617-2.90857-.83105-1.0127-1.61053-2.06366-2.33832-3.15289-.72784-1.08929-1.40051-2.21161-2.01807-3.36694-.61755-1.1554-1.177-2.33826-1.67834-3.54858-.50134-1.21027-.94214-2.44226-1.32245-3.69592-.38031-1.2536-.69824-2.52289-.9538-3.80774-.25555-1.28491-.44757-2.57916-.57599-3.88293-.12842-1.30371-.19257-2.61066-.19257-3.92065Z"/><path class="cls-1" d="M.5,200V40c0-1.2937.06335-2.58423.19019-3.8717.12677-1.28741.31641-2.56555.56879-3.83441.25238-1.2688.56635-2.52222.94183-3.76013.37555-1.23798.81085-2.45459,1.30591-3.64978s1.04755-2.36328,1.65735-3.50415c.60986-1.14093,1.27411-2.24921,1.99286-3.32489.71875-1.07562,1.48846-2.11346,2.30914-3.11353.82068-1,1.68842-1.9574,2.60321-2.87213.91473-.91473,1.87213-1.78253,2.87213-2.60321,1.00006-.82068,2.0379-1.59039,3.11353-2.30914,1.07568-.71869,2.18396-1.383,3.32489-1.99286,1.14087-.6098,2.30896-1.16223,3.50415-1.65735,1.19519-.495,2.4118-.9303,3.64978-1.30591,1.23792-.37549,2.49133-.68945,3.76013-.94183,1.26886-.25238,2.547-.44196,3.83441-.56879,1.28748-.12683,2.578-.19019,3.8717-.19019h520c1.29358,0,2.58423.06335,3.87158.19019,1.28748.12683,2.56567.31641,3.83447.56879s2.52222.56635,3.76013.94183c1.23792.37561,2.45447.81091,3.64966,1.30591,1.19531.49512,2.36328,1.04755,3.50415,1.65735,1.14099.60986,2.24927,1.27417,3.32495,1.99286,1.07568.71875,2.11353,1.48846,3.11353,2.30914s1.9574,1.68848,2.87219,2.60321,1.78247,1.87213,2.60315,2.87213c.82068,1.00006,1.59045,2.0379,2.30908,3.11353.71875,1.07568,1.38306,2.18396,1.99292,3.32489.60986,1.14087,1.16223,2.30896,1.65735,3.50415s.93042,2.4118,1.30591,3.64978c.37549,1.23792.68945,2.49133.94189,3.76013.25232,1.26886.44202,2.547.56873,3.83441.12683,1.28748.19031,2.578.19031,3.8717v160c0,1.29364-.06348,2.58423-.19031,3.87164-.12671,1.28741-.31641,2.56555-.56873,3.83435-.25244,1.26886-.56641,2.52222-.94189,3.76019s-.81079,2.45459-1.30591,3.64978-1.04749,2.36322-1.65735,3.50415-1.27417,2.24921-1.99292,3.32483c-.71863,1.07568-1.4884,2.11353-2.30908,3.11353-.82068,1.00006-1.68835,1.95746-2.60315,2.87219-.91479.91479-1.87219,1.78253-2.87219,2.60321s-2.03784,1.59039-3.11353,2.30914c-1.07568.71869-2.18396,1.383-3.32483,1.99286-1.14099.6098-2.30896,1.16223-3.50427,1.65729-1.19519.49512-2.41174.93042-3.64966,1.30597-1.23792.37549-2.49133.68945-3.76013.94183s-2.547.44202-3.83447.56879c-1.28735.12683-2.578.19025-3.87158.19025H40c-1.2937,0-2.58423-.06342-3.8717-.19019-1.28741-.12683-2.56555-.31641-3.83441-.56885-1.2688-.25238-2.52222-.56628-3.76013-.94183-1.23798-.37555-2.45459-.81085-3.64978-1.30597-1.19519-.49506-2.36328-1.04749-3.50415-1.65729-1.14093-.60986-2.24921-1.27417-3.32489-1.99286-1.07562-.71875-2.11346-1.48846-3.11353-2.30914-1-.82068-1.9574-1.68842-2.87213-2.60321-.91479-.91473-1.78253-1.87213-2.60321-2.87219-.82068-1-1.59039-2.03784-2.30914-3.11353-.71875-1.07562-1.383-2.1839-1.99286-3.32483-.6098-1.14093-1.16229-2.30896-1.65735-3.50415s-.93036-2.4118-1.30591-3.64978c-.37549-1.23798-.68945-2.49133-.94183-3.76019-.25238-1.2688-.44202-2.54694-.56879-3.83435-.12683-1.28741-.19019-2.578-.19019-3.87164Z"/><path class="cls-4" d="M235.16016,116.91016c-.12012-.25977-.31055-.60059-.57031-1.02051s-.54492-.83984-.85547-1.25977c-.30957-.41992-.60449-.75-.88477-.99023,3.80078-1.25977,6.94531-2.98926,9.43555-5.18945s4.28516-5.02051,5.38477-8.45996c-.94043.01953-2.00977.0498-3.20996.08984s-2.4248.08008-3.6748.12012-2.4502.08008-3.59961.12012c-1.15039.04004-2.15625.08008-3.01562.12012s-1.49023.07031-1.89062.08984l-.23926-4.0498c.5791.04004,1.33984.07031,2.28027.08984.93945.01953,1.98438.0293,3.13477.0293s2.33008-.00391,3.54004-.01465c1.20996-.00977,2.38477-.03027,3.52441-.05957,1.14062-.03027,2.16992-.06543,3.08984-.10547s1.65039-.08008,2.19043-.12012l2.43066,1.25977c-.68066,3.2002-1.80078,6.06543-3.36035,8.5957s-3.50098,4.7002-5.82031,6.50977c-2.32031,1.81055-4.9502,3.22461-7.88965,4.24512Z"/><path class="cls-4" d="M275.81055,109.2002c-.2207-.25977-.57031-.5752-1.05078-.94531s-.89062-.64453-1.23047-.8252c.60059-.45996,1.27051-1.06445,2.01074-1.81445.73926-.75,1.41016-1.50488,2.00977-2.26562-.86035.02051-1.83496.05078-2.9248.09082s-2.21484.08008-3.375.11914c-1.16016.04102-2.26953.08105-3.33008.12012-1.06055.04102-1.99512.08008-2.80469.12012-.81055.04004-1.41602.07031-1.81543.08984l-.12012-3c.5.02051,1.18945.03516,2.07031.04492.87988.01074,1.875.01074,2.98438,0,1.11133-.00977,2.25-.0293,3.41992-.05957,1.1709-.03027,2.2959-.05957,3.375-.08984,1.08008-.03027,2.04492-.0752,2.89551-.13477.85059-.06055,1.49512-.12012,1.93457-.18066l1.80078,1.41016c-.44043.7998-.99512,1.66504-1.66504,2.59473-.6709.93066-1.37598,1.81543-2.11523,2.65527-.74023.83984-1.43066,1.53027-2.06934,2.07031ZM266.7207,118.65039c-.20117-.30078-.50586-.66016-.91602-1.08008s-.81445-.75977-1.21484-1.02051c2.08008-1.15918,3.57031-2.71973,4.4707-4.67969.89941-1.95996,1.30859-4.25,1.22949-6.87012h3c0,3.2002-.55957,5.94531-1.68066,8.23535-1.11914,2.29004-2.75,4.09473-4.88867,5.41504Z"/><path class="cls-4" d="M301.51953,117.48047v-12.99023c-1.51953,1.04004-3.07422,2.00488-4.66406,2.89453-1.58984.89062-3.14648,1.66504-4.66602,2.3252-.16016-.2998-.37891-.64941-.66016-1.0498-.2793-.40039-.57422-.79004-.88477-1.16992s-.61523-.67969-.91406-.90039c1.74023-.61914,3.53906-1.42969,5.39941-2.42969s3.65527-2.11035,5.38574-3.33008c1.72852-1.21973,3.31445-2.5,4.75391-3.83984,1.44043-1.33984,2.61035-2.66992,3.50977-3.99023l3.12109,2.12988c-.86035,1.13965-1.85547,2.26465-2.98535,3.375s-2.34473,2.18555-3.64551,3.22559v15.75h-3.75Z"/><path class="cls-4" d="M320.62988,115.9502c-.26074-.43945-.64941-.94043-1.16992-1.5s-1.00098-1.00977-1.44043-1.35059c1.66016-.87988,2.99512-1.83984,4.00586-2.87988,1.00977-1.03906,1.74414-2.19434,2.20508-3.46484.45898-1.26953.70898-2.68457.75-4.24512.03906-1.55957-.07031-3.28906-.33008-5.18945l3.50977-.30078c.41992,3,.46484,5.67578.13477,8.02539-.33008,2.35059-1.11523,4.41504-2.35547,6.19531s-3.00977,3.34961-5.30957,4.70996ZM333.62012,115.25977l-1.9502-1.55957c.04004-.32031.06445-.97949.0752-1.98047.00977-1,.01953-2.18945.03027-3.56934.00977-1.38086.01465-2.78027.01465-4.2002,0-1.75977-.01074-3.29004-.03027-4.58984s-.0498-2.32031-.08984-3.06055h3.83984c-.04004.36035-.07031.93555-.08984,1.72559s-.03516,1.69434-.04492,2.71484c-.00977,1.01953-.01562,2.04004-.01562,3.05957v6.54004c.86035-.35938,1.78516-.7998,2.77539-1.32031.99023-.51953,1.96973-1.06934,2.94043-1.64941.96973-.58008,1.85449-1.15039,2.65527-1.70996.79883-.55957,1.42969-1.07031,1.88965-1.53027,0,.37988.03418.85059.10449,1.41016.07031.56055.15039,1.09473.24023,1.60449.08984.51074.16504.87598.22461,1.0957-.66016.55957-1.52539,1.17969-2.59375,1.85938-1.07031.68066-2.21582,1.35059-3.43555,2.01074-1.2207.65918-2.40527,1.26953-3.55469,1.83008-1.15039.55957-2.14551,1-2.98535,1.31934Z"/><path class="cls-4" d="M352.64062,118.58984c-.26074-.58008-.58594-1.1748-.97559-1.78516-.38965-.60938-.74512-1.06445-1.06543-1.36426,2.2002-.82031,4.30078-1.87988,6.30078-3.18066,2-1.2998,3.78906-2.79004,5.36914-4.46973-1.19922-.83984-2.34961-1.5-3.44922-1.98047l2.09961-2.75977c1.14062.52051,2.35938,1.19043,3.66016,2.00977.51953-.73926,1.00488-1.49414,1.45508-2.26465.44922-.76953.85547-1.55469,1.21484-2.35449-.83984.04004-1.74512.08496-2.71484.13477-.9707.0498-1.875.08984-2.71484.12012-.83984.0293-1.5.05469-1.98047.07422-.88086,1.34082-1.875,2.61523-2.98438,3.8252-1.11035,1.21094-2.32617,2.3252-3.64551,3.3457-.34082-.40039-.77051-.86035-1.29004-1.38086-.51953-.51953-.98047-.88965-1.37988-1.10938,1.41992-1,2.73926-2.19043,3.95996-3.57031,1.21973-1.37988,2.29004-2.84961,3.20996-4.41016.91992-1.55957,1.60059-3.08984,2.04004-4.58984l3.48047,1.11035c-.2207.59961-.46094,1.20508-.7207,1.81445-.25977.61035-.53906,1.20508-.83984,1.78516.87988-.01953,1.83008-.04492,2.84961-.0752,1.02051-.0293,1.98535-.06934,2.89551-.12012.90918-.04883,1.60449-.10449,2.08496-.16406l2.31055,1.25977c-.5,1.59961-1.11035,3.11523-1.83008,4.54492-.7207,1.42969-1.53027,2.78516-2.43066,4.06445.76074.56055,1.47559,1.125,2.14551,1.69531s1.22461,1.10547,1.66406,1.60547c-.25977.2002-.56445.47949-.91406.83984-.35059.35938-.68555.73047-1.00586,1.10938-.32031.38086-.56934.7207-.75,1.02051-.43945-.51953-.95898-1.06543-1.55957-1.63477-.60059-.57031-1.24023-1.13477-1.91992-1.69531-1.68066,1.83984-3.5752,3.46973-5.68457,4.88965-2.11133,1.4209-4.40625,2.64062-6.88477,3.66016ZM372.76953,98.5498c-.37988-.63965-.875-1.31934-1.48438-2.04004-.61035-.71973-1.15527-1.2998-1.63477-1.74023l1.64941-1.28906c.28027.23926.62988.59473,1.0498,1.06445.41992.4707.83008.94531,1.23047,1.4248.40039.48047.70898.89062.92969,1.23047l-1.74023,1.34961ZM375.5293,96.2998c-.37891-.61914-.87891-1.28418-1.5-1.99512-.61914-.70898-1.17969-1.28418-1.67969-1.72461l1.65039-1.29004c.2793.24023.63477.58984,1.06445,1.0498.42969.46094.8457.92969,1.24609,1.41016.39941.48047.70898.89062.92969,1.23047l-1.71094,1.31934Z"/><path class="cls-4" d="M388.91016,118.65039c-.30078-.44043-.71484-.9502-1.24512-1.53027s-1.05566-1.00977-1.5752-1.29004c1.82031-.85938,3.51465-1.96973,5.08496-3.33008,1.56934-1.35938,2.94043-2.91504,4.11035-4.66504s2.06445-3.625,2.68555-5.625h-12.09082c0,.7002.00488,1.45508.01465,2.26465.00977.81055.03027,1.55078.06055,2.2207.0293.66992.05469,1.1543.07422,1.45508h-3.83984v-9.4502c.75977.04004,1.85547.0752,3.28516.10449,1.42969.03027,2.95508.04492,4.5752.04492v-6.08984h3.75v6.08984c1.36035-.01953,2.58984-.04492,3.69043-.07422,1.09961-.03027,1.89941-.0752,2.40039-.13574l2.54883,1.26074c-.35938,2.05957-.95898,4.03418-1.79883,5.9248-.84082,1.88965-1.86133,3.63965-3.06055,5.25-1.2002,1.61035-2.54004,3.05469-4.01953,4.33496-1.48047,1.28027-3.03125,2.35938-4.65039,3.24023Z"/><path class="cls-4" d="M417.0498,102.92969c-.25977-.2793-.625-.60938-1.09473-.98926-.4707-.37988-.99023-.78027-1.56055-1.2002-.56934-.41992-1.125-.80469-1.66406-1.15527-.54102-.34961-1.01074-.61523-1.41016-.79492l2.40039-3.03027c.39844.2207.86914.5,1.40918.83984.54004.34082,1.09473.71094,1.66504,1.11035.57031.40039,1.10547.79492,1.60547,1.18457.5.39062.89941.73535,1.19922,1.03516l-2.5498,3ZM413.83984,116.16016l-2.04004-3.69043c1.41992-.2998,2.91504-.79492,4.48535-1.48438,1.57031-.69043,3.14453-1.5,4.72461-2.43066,1.58008-.92969,3.08008-1.92969,4.5-3,1.41992-1.06934,2.70508-2.1543,3.85547-3.25488,1.14941-1.09961,2.08496-2.14941,2.80469-3.14941.08008.33984.21484.75977.40527,1.25977.18945.5.39453.98535.61426,1.45508.2207.46973.41016.83496.57031,1.09473-.98047,1.25977-2.20508,2.53516-3.6748,3.8252s-3.09473,2.53027-4.875,3.71973c-1.78027,1.19043-3.63965,2.27539-5.58008,3.25488-1.94043.98047-3.87012,1.78027-5.79004,2.40039Z"/><path class="cls-4" d="M442.87988,113.82031v-16.08008h18.24023v16.08008h-18.24023ZM446.59961,110.40039h10.80078v-9.24023h-10.80078v9.24023Z"/><path class="cls-4" d="M469.75977,107.5498c.01953-.2793.03027-.66016.03027-1.13965v-1.44043c0-.47949-.01074-.85938-.03027-1.13965.37988.02051,1.05469.04004,2.02539.05957.96973.02051,2.12988.04102,3.48047.06055,1.34961.01953,2.79395.03516,4.33398.04492s3.08008.01465,4.62109.01465c1.53906,0,2.99414-.00977,4.36426-.0293,1.37012-.02051,2.55469-.04004,3.55566-.06055.99902-.01953,1.70898-.0498,2.12891-.08984-.01953.25977-.03516.62988-.04492,1.11035-.00977.47949-.00977.96484,0,1.4541.00977.49121.01562.86621.01562,1.125-.5-.01953-1.23535-.03906-2.20508-.05957-.9707-.01953-2.09961-.04004-3.39062-.05957-1.28906-.02051-2.66016-.03027-4.10938-.03027h-4.39453c-1.48047,0-2.89062.00977-4.23047.03027-1.33984.01953-2.54492.04004-3.61523.05957-1.07031.02051-1.91504.0498-2.53516.08984Z"/><path class="cls-4" d="M508.58008,117.92969v-24.17969h3.66016v9.08984l1.34961-1.91992c.48047.36035,1.11523.79004,1.90527,1.29004s1.63477,1.01562,2.53418,1.54492c.90039.53027,1.77051,1.01562,2.61133,1.45508.83984.44043,1.54883.77051,2.12891.99023-.24023.21973-.51465.53516-.82422.94434-.31055.41016-.59961.83105-.87012,1.26074s-.47559.79492-.61523,1.09473c-.47949-.24023-1.0752-.57031-1.78516-.99023s-1.45996-.87402-2.25-1.36523c-.79004-.48926-1.5498-.98438-2.28027-1.48438s-1.36523-.9502-1.9043-1.35059v13.62012h-3.66016ZM520.2207,100.29004c-.38086-.63965-.87109-1.32031-1.4707-2.04004s-1.15039-1.2998-1.65039-1.74023l1.67969-1.29004c.28125.26074.63086.62598,1.05078,1.0957s.82422.94434,1.21484,1.4248c.39062.47949.69531.88965.91504,1.22949l-1.73926,1.32031ZM522.98047,98.09961c-.38086-.63965-.875-1.31445-1.48535-2.02441s-1.16504-1.28516-1.66504-1.72559l1.67969-1.29004c.28027.24023.63086.5957,1.05078,1.06543s.8291.94531,1.22949,1.4248c.39941.48047.70996.89062.93066,1.23047l-1.74023,1.31934Z"/><path class="cls-4" d="M228.67969,149v-14h1.2207l7.89941,11.7998v-11.7998h1.24023v14h-1.2002l-7.93945-11.91992v11.91992h-1.2207Z"/><path class="cls-4" d="M246.08008,149v-12.83984h-4.59961v-1.16016h10.45996v1.16016h-4.60059v12.83984h-1.25977Z"/><path class="cls-4" d="M254.36035,149v-14.01953h6.09961c1.32031,0,2.32324.30664,3.01074.91992.68555.61328,1.0293,1.52637,1.0293,2.73926,0,2.28027-1.19922,3.49414-3.59961,3.64062l3.58008,6.71973h-1.44043l-3.5-6.7002h-3.95996v6.7002h-1.21973ZM255.58008,141.12012h4.78027c.95996,0,1.67676-.2002,2.14941-.60059.47363-.39941.71094-1.02637.71094-1.87988,0-.85254-.2373-1.47949-.71094-1.87988-.47266-.39941-1.18945-.59961-2.14941-.59961h-4.78027v4.95996Z"/><path class="cls-4" d="M270.24023,149.21973c-.85352,0-1.62695-.16699-2.32031-.5s-1.25391-.80664-1.67969-1.41992l.87988-.74023c.31934.49414.75684.87402,1.30957,1.14062s1.16992.39941,1.84961.39941c.6543,0,1.21094-.14258,1.6709-.42969.45996-.28613.69043-.73633.69043-1.34961,0-.54688-.2207-.92676-.66016-1.14062-.44043-.21289-1.11328-.41309-2.02051-.59961-.55957-.12012-1.08984-.2666-1.58984-.44043-.5-.17285-.90332-.43652-1.20996-.79004-.30664-.35254-.45996-.84277-.45996-1.46973,0-.57324.15625-1.05957.46973-1.45996.3125-.40039.73047-.70605,1.25-.91992.51953-.21289,1.07324-.32031,1.66016-.32031,1.57324,0,2.72656.56055,3.45996,1.68066l-.81934.73926c-.54688-.86621-1.4209-1.2998-2.62109-1.2998-.69336,0-1.22656.15039-1.59961.4502s-.56055.66992-.56055,1.11035c0,.49316.20312.84277.61035,1.0498s1.03613.40332,1.88965.58984c.60059.13379,1.16406.2998,1.69043.5s.9502.48047,1.27051.83984c.32031.36035.47949.86035.47949,1.5,0,.85352-.33008,1.54688-.98926,2.08008-.66016.5332-1.54395.7998-2.65039.7998Z"/><path class="cls-4" d="M279.35938,149.21973c-1.01367,0-1.83301-.32617-2.45996-.97949-.62598-.65332-.94043-1.58691-.94043-2.7998v-6.02051h1.20117v5.86035c0,.93359.22266,1.63281.66992,2.09961.44629.4668,1.02246.7002,1.72949.7002.81348,0,1.47363-.25293,1.97949-.75977.50781-.50684.76074-1.12695.76074-1.86035v-6.04004h1.21973v9.56055h-1.13965l-.04004-1.34082c-.28027.44043-.67969.81348-1.2002,1.12012s-1.11328.45996-1.78027.45996Z"/><path class="cls-4" d="M286.5,153.16016v-13.74023h1.12012l.04004,1.74023c.3457-.62695.80664-1.11328,1.37988-1.45996s1.22656-.52051,1.95996-.52051c.85352,0,1.61328.20996,2.2793.62988.66797.4209,1.19141,1.00684,1.57031,1.76074.38086.75293.57031,1.62988.57031,2.62988s-.18945,1.87695-.57031,2.62988c-.37891.75293-.90234,1.33984-1.57031,1.75977-.66602.41992-1.42578.62988-2.2793.62988-.7207,0-1.35938-.17285-1.91992-.51953s-1.01367-.81348-1.35938-1.40039v5.86035h-1.2207ZM290.98047,148.08008c.62598,0,1.18262-.16016,1.66992-.48047.48633-.31934.86914-.76953,1.14941-1.34961s.4209-1.2627.4209-2.0498-.14062-1.46973-.4209-2.0498-.66309-1.03027-1.14941-1.35059c-.4873-.31934-1.04395-.47949-1.66992-.47949-.94727,0-1.72754.34961-2.33984,1.0498-.61426.7002-.91992,1.64355-.91992,2.83008,0,1.17285.30566,2.11328.91992,2.81934.6123.70703,1.39258,1.06055,2.33984,1.06055Z"/><path class="cls-4" d="M297.85938,153.16016v-13.74023h1.12109l.03906,1.74023c.34668-.62695.80664-1.11328,1.38086-1.45996.57227-.34668,1.22656-.52051,1.95898-.52051.85352,0,1.61328.20996,2.28027.62988.66699.4209,1.19043,1.00684,1.57031,1.76074.37988.75293.56934,1.62988.56934,2.62988s-.18945,1.87695-.56934,2.62988-.90332,1.33984-1.57031,1.75977-1.42676.62988-2.28027.62988c-.71973,0-1.35938-.17285-1.91992-.51953-.55957-.34668-1.01367-.81348-1.35938-1.40039v5.86035h-1.2207ZM302.33984,148.08008c.62695,0,1.18359-.16016,1.66992-.48047.48633-.31934.87012-.76953,1.15039-1.34961.2793-.58008.41992-1.2627.41992-2.0498s-.14062-1.46973-.41992-2.0498c-.28027-.58008-.66406-1.03027-1.15039-1.35059-.48633-.31934-1.04297-.47949-1.66992-.47949-.94727,0-1.72656.34961-2.33984,1.0498s-.91992,1.64355-.91992,2.83008c0,1.17285.30664,2.11328.91992,2.81934.61328.70703,1.39258,1.06055,2.33984,1.06055Z"/><path class="cls-4" d="M313.12012,149.21973c-.85352,0-1.61328-.21289-2.28027-.63965-.66602-.42676-1.19336-1.0166-1.58008-1.77051-.38672-.75293-.58008-1.62305-.58008-2.60938s.19336-1.85645.58008-2.61035c.38672-.75293.91406-1.34277,1.58008-1.76953.66699-.42676,1.42676-.64062,2.28027-.64062.86621,0,1.63379.21387,2.2998.64062.66699.42676,1.19336,1.0166,1.58008,1.76953.38672.75391.58008,1.62402.58008,2.61035s-.19336,1.85645-.58008,2.60938c-.38672.75391-.91309,1.34375-1.58008,1.77051-.66602.42676-1.43359.63965-2.2998.63965ZM313.12012,148.08008c.62598,0,1.18262-.16016,1.66992-.48047.4873-.31934.87012-.76953,1.15039-1.34961s.41992-1.2627.41992-2.0498-.13965-1.46973-.41992-2.0498-.66309-1.03027-1.15039-1.35059c-.4873-.31934-1.04395-.47949-1.66992-.47949-.93262,0-1.70312.34961-2.30957,1.0498-.60742.7002-.91016,1.64355-.91016,2.83008,0,1.17285.30273,2.11328.91016,2.81934.60645.70703,1.37695,1.06055,2.30957,1.06055Z"/><path class="cls-4" d="M320,149v-9.58008h1.16016l.06055,1.66016c.26562-.56055.68945-1.0166,1.26953-1.37012s1.22266-.53027,1.92969-.53027c.18652,0,.37695.01074.57031.03027.19336.02051.35645.0498.49023.08984v1.18066c-.12109-.02734-.29102-.05371-.50977-.08008-.2207-.02734-.44434-.04004-.6709-.04004-.55957,0-1.07324.12988-1.54004.38965s-.83594.60645-1.10938,1.04004-.41016.92383-.41016,1.46973v5.74023h-1.24023Z"/><path class="cls-4" d="M331.25977,149.21973c-.85352,0-1.49316-.17969-1.91992-.54004-.42676-.35938-.63965-1.00586-.63965-1.93945v-6.2002h-2.08008v-1.12012h2.08008v-3.51953h1.2002v3.51953h2.91992v1.12012h-2.91992v6c0,.59961.12598,1.00977.37988,1.22949.25293.2207.64648.33008,1.17969.33008.22656,0,.4668-.0332.71973-.09961.25391-.06641.4668-.13965.64062-.21973v1.17969c-.1875.06641-.42773.12695-.7207.17969-.29297.05371-.57324.08008-.83984.08008Z"/><path class="cls-4" d="M336.01953,149.21973c-.31934,0-.58594-.10938-.79883-.33008-.21387-.21973-.32031-.47656-.32031-.76953,0-.30664.10645-.57031.32031-.79004.21289-.21973.47949-.33008.79883-.33008.30664,0,.56641.11035.78125.33008.21289.21973.31934.4834.31934.79004,0,.29297-.10645.5498-.31934.76953-.21484.2207-.47461.33008-.78125.33008Z"/><path class="cls-4" d="M343.83984,149.21973c-.86719,0-1.63672-.20312-2.31055-.60938-.67285-.40723-1.19922-.9873-1.58008-1.74023-.37891-.75293-.56934-1.64355-.56934-2.66992,0-1,.19043-1.87305.56934-2.62012.38086-.74707.9043-1.33008,1.57031-1.75.66699-.41992,1.42676-.62988,2.28027-.62988.86621,0,1.60254.2168,2.20996.64941.60742.43359,1.07031.99414,1.39062,1.68066.31934.68652.47949,1.41016.47949,2.16992v.39941h-7.28027c-.02637,1.2002.25684,2.16992.84961,2.91016.59375.74023,1.39746,1.11035,2.41016,1.11035.74707,0,1.37305-.19043,1.88086-.57031.50586-.37988.91992-.94336,1.24023-1.68945l1,.58008c-.85352,1.85254-2.23438,2.7793-4.14062,2.7793ZM340.67969,143.05957h6c-.06641-.51953-.23047-.99316-.49023-1.41992-.25977-.42578-.59277-.7666-1-1.01953-.40625-.25293-.86914-.37988-1.38965-.37988-.81348,0-1.49707.25-2.0498.75-.55371.5-.91016,1.18945-1.07031,2.06934Z"/><path class="cls-4" d="M348.90039,149l3.79883-5.16016-3.25977-4.41992h1.44043l2.52051,3.45996,2.53906-3.45996h1.40039l-3.24023,4.40039,3.82031,5.17969h-1.45996l-3.05957-4.2002-3.06055,4.2002h-1.43945Z"/><path class="cls-4" d="M363.2793,149.21973c-.86621,0-1.63672-.20312-2.30957-.60938-.67285-.40723-1.2002-.9873-1.58008-1.74023s-.56934-1.64355-.56934-2.66992c0-1,.18945-1.87305.56934-2.62012s.90332-1.33008,1.57031-1.75,1.42676-.62988,2.28027-.62988c.86621,0,1.60254.2168,2.20898.64941.60742.43359,1.07031.99414,1.39062,1.68066s.48047,1.41016.48047,2.16992v.39941h-7.28027c-.02637,1.2002.25684,2.16992.84961,2.91016s1.39746,1.11035,2.41016,1.11035c.74707,0,1.37305-.19043,1.87988-.57031s.91992-.94336,1.24023-1.68945l1,.58008c-.85352,1.85254-2.2334,2.7793-4.14062,2.7793ZM360.12012,143.05957h6c-.06738-.51953-.23047-.99316-.49023-1.41992-.25977-.42578-.59277-.7666-1-1.01953s-.87012-.37988-1.38965-.37988c-.81445,0-1.49707.25-2.05078.75-.55273.5-.91016,1.18945-1.06934,2.06934Z"/><rect class="cls-3" x="114.41992" y="143.8009" width="28.01587" height="25.81207"/><g class="cls-8"><g class="cls-6"><g class="cls-7"><path class="cls-3" d="M165.27466,171.97626h-73.69189c-2.46265,0-4.45947-1.99689-4.45947-4.45819,0-2.46252,1.99683-4.45947,4.45947-4.45947h73.69189c2.46265,0,4.45825,1.99695,4.45825,4.45947,0,2.4613-1.99561,4.45819-4.45825,4.45819"/><path class="cls-3" d="M143.75305,143.38043l-24.34985-24.34998-8.3551,8.3537-8.86719-36.08838,36.08838,8.86853-8.35498,8.3537,24.3512,24.34998-10.51245,10.51245ZM193.2384,76.00012H63.61798c-2.07782,0-3.76154,1.68372-3.76154,3.76025v69.62128c0,2.07782,1.68372,3.76154,3.76154,3.76154h129.62042c2.07788,0,3.7616-1.68372,3.7616-3.76154v-69.62128c0-2.07654-1.68372-3.76025-3.7616-3.76025"/></g></g></g></g></svg>