<?xml version="1.0" encoding="UTF-8"?><svg id="_レイヤー_2" xmlns="http://www.w3.org/2000/svg" viewBox="0 0 271.69897 50"><defs><style>.cls-1{fill:#fff;stroke-width:0px;}</style></defs><g id="_レイヤー_1-2"><path class="cls-1" d="M72.802,20.65796l-2.358-1.60205c.06699-.06689.11099-.13281.17801-.22192h-1.95801v1.4021c.64499,1.35596,2.00201,3.17993,3.11499,4.18188l-1.62399,2.24707c-.62302-.86792-1.091-1.78003-1.491-2.75903v9.38794h-2.55798v-9.27686c-.60101,1.89087-1.18002,3.31494-2.33603,4.96191l-1.02399-3.49292c1.46899-1.93604,2.448-4.31616,3.11499-6.6521h-2.69199v-2.58105h2.93701v-3.87085h2.55798v3.87085h2.44699v1.84717c.91202-1.58008,1.42401-3.35913,1.78-5.14014l2.66901.31201c-.155.75708-.33301,1.48999-.53299,2.22412h1.401v-3.11401h2.62601v3.11401h4.60498v2.604h-4.60498v2.66895h5.00497v2.64697h-4.18198c1.22299,2.27002,2.513,3.76001,4.56,5.36206l-1.245,3.02588c-1.80301-1.51294-3.09302-3.53687-4.138-5.62891v7.1189h-2.62601v-7.09595c-1.26801,2.31299-2.58002,3.87109-4.64902,5.53906l-1.64697-2.53613c2.336-1.55786,4.07199-3.35889,5.495-5.78491h-4.51602v-2.64697h5.31702v-2.66895h-2.26901c-.39999.979-.77802,1.68994-1.35699,2.55786"/><path class="cls-1" d="M106.259,15.69702v2.66992h-6.474c.11099,2.95898.48999,6.11816,1.513,8.92114.22198.64502,1.00101,2.55884,1.802,2.55884s1.35699-2.00293,1.646-3.18188l1.84702,2.22485c-.37903,1.55713-1.24603,4.44922-3.24902,4.44922-.867,0-1.73499-.48901-2.38-1.04517-.979-.86792-1.75699-2.24805-2.24698-3.44897-1.17902-2.84692-1.62399-7.36401-1.75702-10.47803h-11.547v-2.66992h11.45801c-.022-1.11206-.06699-2.22412-.06699-3.33691h2.87c0,1.11279.02197,2.22485.04401,3.33691h3.159c-.66702-.68896-1.71201-1.55713-2.51401-2.06812l1.98099-1.44702c1.134.62305,2.091,1.37915,2.936,2.33618l-1.60199,1.17896h2.58099ZM89.77399,23.43994h-4.005v-2.66992h10.612v2.66992h-3.82599v5.56104c1.51202-.22192,3.02502-.46704,4.53802-.71191l.02197,2.66895c-3.78101.802-7.63,1.24707-11.43399,1.71411l-.379-2.84814c1.491-.13306,2.98099-.26709,4.47198-.44507v-5.93896Z"/><path class="cls-1" d="M122.23001,18.32202c-1.57901-1.15698-2.82501-2.26904-4.09302-3.76001-1.06799,1.44604-2.55899,2.69189-4.00497,3.76001h8.09799ZM108.815,32.89307l-.35602-2.80298c1.06802.02295,2.13602.02295,3.18201.02295.73401-1.37915,1.423-3.13696,1.91302-4.60498h-5.34003v-2.60303h19.80002v2.60303h-11.27902c-.66699,1.53491-1.31198,3.09204-2.091,4.58203,2.51401,0,5.539-.177,8.07501-.3772-.71198-.95679-1.46799-1.8689-2.246-2.75879l2.358-1.26807c1.89099,1.8689,3.51501,4.11597,4.89401,6.38403l-2.53601,1.44702c-.289-.55615-.578-1.04614-.88998-1.58008-5.13901.62305-10.30002.84497-15.48401.95605M108.70401,21.43604l-1.38-2.73608c3.293-1.29004,7.23099-3.38086,9.255-6.36304h3.159c2.448,3.07104,5.58398,4.89404,9.189,6.36304l-1.42401,2.71411c-1.29099-.55615-2.336-1.13501-3.51599-1.89014v1.26709h-11.70099v-1.22412c-1.17902.71216-2.336,1.31299-3.582,1.86914"/><path class="cls-1" d="M145.72,12.33789v5.96313h4.58298v2.82495h-4.58298v8.72095h5.00601v2.80298h-13.21503v-2.80298h5.38403v-8.72095h-4.36102v-2.82495h4.36102v-5.96313h2.82498ZM135.73102,33.33911h-2.78101v-8.07617c-.80002.71216-1.646,1.35815-2.53601,1.98096l-.91199-3.04785c2.13498-1.31201,4.62698-3.69312,5.69501-5.96216h-5.362v-2.60278h3.11499v-3.29321h2.78101v3.29321h2.46997v2.60278c-.60098,1.22314-1.24597,2.38013-2.047,3.49316.93402,1.06689,1.86801,1.8689,3.09201,2.57983l-1.35699,2.60303c-.80099-.73389-1.513-1.42383-2.15799-2.29102v8.72021Z"/><path class="cls-1" d="M185.14197,17.04907v6.59692h2.36102v-5.95996h3.93597v9.82007h-6.297v7.23486h3.07404v-5.88501h4.12299v11.28198h-4.12299v-1.42383h-9.97101v1.42383h-4.12299v-11.28198h4.12299v5.88501h3.07397v-7.23486h-6.25995v-9.82007h3.86096v5.95996h2.39899v-6.59692h3.823ZM173.59698,12.81396h14.20599v-2.96094h-14.20599v2.96094ZM169.28699,20.61011V5.91699h23.01404v10.53198h-18.70404v3.97314c0,2.92383-.37396,7.04688-1.01196,9.89478-.82404,3.74902-2.28601,7.08521-4.94702,9.896l-3.711-3.18579c1.53699-1.57422,2.58704-3.07422,3.48596-5.13501-2.88599,1.34888-6.40894,2.58594-9.48297,3.41089l-.45001-4.7981c1.31201-.26196,2.586-.59985,3.89905-.97485v-11.46899h-3.52405v-4.49805h3.52405V4.83008h4.38501v8.73291h2.51099v4.49805h-2.51099v10.04492c.82397-.26196,1.64893-.63696,2.43597-.97388l.18799,1.83594c.599-2.73608.89899-5.54712.89899-8.35791"/><path class="cls-1" d="M221.23102,24.20801h5.02301v-2.36206h-5.02301v2.36206ZM221.23102,18.8479h5.02301v-2.32397h-5.02301v2.32397ZM218.87,12.17603c1.57397-.78711,2.77301-1.42407,4.16003-2.51099h-7.60901c1.16199.78687,2.32397,1.61084,3.44897,2.51099M212.04797,24.20801h4.91003v-2.36206h-4.91003v2.36206ZM212.04797,18.8479h4.91003v-2.32397h-4.91003v2.32397ZM207.51196,9.66504v-3.6731h22.11505v3.6731c-1.87402,1.31201-3.86102,2.51099-5.96002,3.48584h6.89697v17.35303c0,2.02515-.89996,3.14917-2.99896,3.14917h-4.49799l-.74902-3.823h3.03601c.74902,0,.90002-.375.90002-1.01196v-1.46216h-5.02301v6.07202h-4.27301v-6.07202h-4.91003v6.29712h-4.30994V13.15088h6.33398c-.97504-.63794-1.68701-1.08789-2.69904-1.61182l2.17401-1.87402h-6.03503ZM206.276,11.53906l-3.67401,3.26099c-1.61102-2.39917-3.52301-4.61011-5.65997-6.52197l3.41101-3.14917c2.36194,1.9502,4.198,3.93604,5.92297,6.41016M204.88904,19.03491v10.79517c.33698,1.87402,1.08698,3.073,2.81097,3.9729,1.68695.86206,3.56,1.08691,5.435,1.08691h19.19098l-.93799,4.46118h-18.51599c-3.63605,0-6.97101-1.08813-9.14502-4.12305-1.57397,1.94897-3.41101,3.74805-5.47198,5.17188l-2.06201-5.02295c1.49902-.75,2.88599-1.76099,4.16003-2.88599v-8.99585h-3.67303v-4.46021h8.20905Z"/><path class="cls-1" d="M251.79602,34.96509h13.83099v-3.74805h-13.83099v3.74805ZM269.15002,9.29004h-20.87701v-3.74805h20.87701v3.74805ZM269.67603,25.82007h-21.81506v-3.74805h21.81506v3.74805ZM269.67603,20.34692h-21.81506v-3.74902h21.81506v3.74902ZM270.237,40.17505h-4.60999v-1.42407h-13.83099v1.42407h-4.64703v-12.59399h23.08801v12.59399ZM271.69897,14.94995h-26.38696v-3.93604h26.38696v3.93604ZM237.44098,25.33301l-1.79901-5.9231c3.22302-3.85986,5.09705-9.81982,5.77203-14.72998l4.72198.48706c-.487,3.33594-1.237,6.26001-2.39795,9.44604v25.56201h-4.53601v-16.86694c-.63702.86182-1.01202,1.2749-1.76105,2.0249"/><path class="cls-1" d="M26.91101,3.62598c-9.633,0-17.47,7.83691-17.47,17.46997s7.83701,17.46899,17.47,17.46899,17.47-7.83594,17.47-17.46899S36.54401,3.62598,26.91101,3.62598M26.91101,39.86792c-10.35101,0-18.772-8.4209-18.772-18.77197S16.56,2.32397,26.91101,2.32397s18.77197,8.42114,18.77197,18.77197-8.42099,18.77197-18.77197,18.77197"/><path class="cls-1" d="M48.87201,0C28.58099,10.5791,20.97198,14.6001,0,24.8689c5.23901.55713,22.24301,1.39307,22.11499,1.37402l1.94302,23.75708S35.07599,26.354,48.87201,0"/></g></svg>