<?xml version="1.0" encoding="UTF-8"?><svg id="_レイヤー_2" xmlns="http://www.w3.org/2000/svg" xmlns:xlink="http://www.w3.org/1999/xlink" viewBox="0 0 160 40"><defs><style>.cls-1{isolation:isolate;}.cls-2{fill:red;}.cls-2,.cls-3,.cls-4{stroke-width:0px;}.cls-3{fill:none;}.cls-5{clip-path:url(#clippath-1);}.cls-4{fill:#fff;}.cls-6{clip-path:url(#clippath);}</style><clipPath id="clippath"><rect class="cls-3" x="12.85681" y="7.38098" width="37.39453" height="26.16968"/></clipPath><clipPath id="clippath-1"><rect class="cls-3" x="12.75" y="7.32971" width="37.75" height="26.25"/></clipPath></defs><g id="_レイヤー_1-2"><path class="cls-2" d="M0,37V3c0-.39795.07605-.78052.22827-1.14795.15222-.36768.36902-.69214.65039-.97339.28125-.28125.60571-.49805.97327-.65039.36755-.1521.75024-.22827,1.14807-.22827h154c.39771,0,.7804.07617,1.14795.22827.36755.15234.69202.36914.97327.65039.28137.28125.49805.60571.65039.97339.15222.36743.22827.75.22839,1.14795v34c-.00012.39771-.07617.78052-.22839,1.14795-.15234.36768-.36902.69214-.65039.97339-.28125.28125-.60571.49805-.97327.65039-.36755.1521-.75024.22827-1.14795.22827H3c-.39783,0-.78052-.07617-1.14807-.22827-.36755-.15234-.69202-.36914-.97327-.65039-.28137-.28125-.49817-.60571-.65039-.97339-.15222-.36743-.22827-.75024-.22827-1.14795Z"/><path class="cls-4" d="M59.60742,13.92969c.01172-.0957.01367-.33301.00879-.71191-.00586-.37793-.01074-.83984-.0166-1.38379-.00488-.54395-.01367-1.11426-.02344-1.71191-.01074-.59766-.02441-1.16797-.04004-1.71191-.0166-.54395-.03027-1.00586-.04004-1.38477-.01074-.37793-.02148-.61523-.03223-.71191h1.98438v.73633c0,.37402.00293.82422.00781,1.35254.00488.52734.0127,1.0791.02441,1.65527.00977.57617.02344,1.13379.03906,1.67188.0166.53906.03223,1.00293.04883,1.39258.01562.38965.0293.65332.03906.79199l-2,.01562ZM60.93555,19.46582c-.07422-.14941-.18359-.3252-.32812-.52832-.14355-.20215-.30078-.40527-.4707-.60742-.17188-.20312-.33203-.36816-.48047-.49609,1.09766-.45898,2.00488-1.00781,2.71973-1.64844.71387-.63965,1.24805-1.4209,1.60059-2.34375.35156-.92285.52734-2.02441.52734-3.30371v-.73633c0-.23438-.00195-.53809-.00781-.91211-.00586-.37305-.01074-.75684-.01562-1.15137-.00586-.39453-.01172-.75195-.0166-1.07227s-.0127-.5498-.02441-.68848h2.06445v4.56055c0,1.49316-.19727,2.79199-.5918,3.89551-.39453,1.10449-1.00293,2.06445-1.82422,2.87988-.82129.81641-1.87207,1.5332-3.15234,2.15234Z"/><path class="cls-4" d="M79.7207,18.07422c-.875,0-1.5127-.13672-1.91211-.4082-.40039-.27246-.60059-.7334-.60059-1.38379v-2.89648c-.67188,0-1.34082.00586-2.00781.0166s-1.25098.01855-1.75195.02344c-.50195.00586-.84863.01855-1.04004.04004v-1.83984c.23438.01074.5918.02148,1.07227.03223.47949.01074,1.04199.01855,1.6875.02344.64551.00586,1.3252.00781,2.04004.00781v-2.0957c-.44824,0-.87988.00586-1.2959.0166s-.77539.01855-1.08008.02344c-.30469.00586-.51953.01367-.64844.02441v-1.84082c.1709.01172.43555.02246.79297.03223.35645.01074.77246.02148,1.24805.03223.47461.01074.97559.01562,1.50391.01562h1.55957c.66113,0,1.28223-.00195,1.86426-.00781.58105-.00488,1.08203-.01562,1.50391-.03223.4209-.01562.72266-.02832.9043-.04004v1.84082c-.27734-.02148-.79004-.03711-1.53711-.04785-.74609-.01074-1.6582-.0166-2.73535-.0166h-.08008v2.0957c.66113,0,1.3252-.00195,1.99219-.00781.66699-.00488,1.28516-.01074,1.85645-.01562.57031-.00586,1.05762-.01074,1.46289-.0166.40625-.00488.68359-.0127.83203-.02344v1.83984c-.25586-.02148-.68555-.03711-1.28711-.04785-.60352-.01074-1.32324-.01855-2.16016-.02441-.83789-.00488-1.73633-.00781-2.69629-.00781v2.06445c0,.27734.07129.46875.21582.5752.14453.10742.41406.16016.80859.16016s.83984-.00781,1.33594-.02344c.49609-.0166.9707-.04004,1.42383-.07227s.8125-.06934,1.08008-.1123c-.03223.12793-.06445.30957-.0957.54395-.0332.23535-.05859.47559-.08008.7207s-.0332.44238-.0332.5918c-.22266.03223-.50586.06152-.84766.08789s-.71094.05371-1.11133.08008-.79297.0459-1.17578.05566c-.38477.01074-.7207.0166-1.00781.0166Z"/><path class="cls-4" d="M88.47266,13.67383c.00977-.14941.01562-.35156.01562-.6084v-.76758c0-.25586-.00586-.45801-.01562-.6084.20117.01074.5625.02148,1.0791.03223.51758.01074,1.13574.02148,1.85645.03223.71973.01074,1.49023.01855,2.3125.02441.82031.00488,1.6416.00781,2.46289.00781.82227,0,1.59766-.00586,2.32812-.0166.73047-.00977,1.36328-.02051,1.89648-.03125s.91211-.02734,1.13574-.04883c-.01074.13965-.01855.33594-.02441.59277-.00488.25586-.00488.51465,0,.77539.00586.26172.00781.46191.00781.60059-.26562-.01074-.6582-.02148-1.17578-.03223s-1.11914-.02148-1.80762-.03223-1.41895-.01562-2.19238-.01562h-2.34375c-.78906,0-1.54102.00488-2.25586.01562s-1.35742.02148-1.92773.03223-1.02148.02637-1.35156.04785Z"/><path class="cls-4" d="M109.17578,19.20996V6.31348h1.95215v4.84863l.71973-1.02441c.25586.18164.59473.4082,1.01562.67969.42188.27246.87305.5498,1.35254.83203.47949.2832.94434.54199,1.3916.77637.44922.23438.82715.41113,1.13672.52832-.12793.11719-.27539.28516-.43945.50391-.16602.21875-.31836.44238-.45703.67188s-.25.42383-.33594.58398c-.25586-.13867-.57324-.31738-.95117-.53613-.37891-.21875-.7793-.46094-1.20117-.72754-.4209-.2666-.82617-.53125-1.21484-.79199-.39062-.26172-.72852-.49902-1.0166-.71191v7.26367h-1.95215Z"/><path class="cls-4" d="M58.13672,34.82617c-.13965-.22461-.33398-.49609-.58496-.81641s-.48242-.56543-.69629-.73633c1.1416-.5332,2.2168-1.20508,3.22461-2.01562s1.91699-1.70117,2.72852-2.67188c-.49121-.37305-.9668-.70898-1.4248-1.00781s-.86914-.5332-1.23145-.7041l1.15234-1.36035c.39453.18164.81543.41113,1.26367.68848.44727.27734.90039.57617,1.35938.89551.46973-.69336.87695-1.4082,1.22461-2.14355.3457-.73633.62109-1.46191.82422-2.17578l1.87109.63965c-.56445,1.70703-1.35449,3.31152-2.36719,4.81543.47949.38477.93262.76562,1.35938,1.14453s.78906.7334,1.08789,1.06348c-.14941.12891-.31738.29102-.50391.48828s-.36523.39453-.53516.5918c-.17188.19824-.31055.37109-.41602.52051-.25684-.32031-.57422-.67188-.95312-1.05566-.37891-.38477-.78613-.76855-1.22363-1.15234-.84277,1.02344-1.78125,1.96289-2.81543,2.81543-1.03516.85352-2.15039,1.5791-3.34375,2.17676Z"/><path class="cls-4" d="M76.35938,27.20996c-.13867-.14941-.33301-.3252-.58398-.52832-.25-.20215-.52734-.41602-.83203-.63965-.30273-.22461-.59961-.42969-.88672-.61621-.28906-.18652-.53906-.32812-.75195-.42383l1.2793-1.61621c.21289.11719.46387.2666.75195.44824s.58398.37891.88867.5918c.30273.21387.58887.42383.85547.63184s.48047.39258.64062.55273l-1.36133,1.59961ZM74.64844,34.26562l-1.08789-1.96777c.75684-.16016,1.55371-.42383,2.3916-.79199.83691-.36816,1.67676-.7998,2.52051-1.2959.8418-.49609,1.6416-1.0293,2.39941-1.59961.75684-.57129,1.44238-1.14941,2.05566-1.73633s1.1123-1.14648,1.49609-1.67969c.04297.18066.11523.40527.2168.67188.10059.2666.20996.52539.32715.77539.11816.25098.21875.44531.30371.58398-.52246.67188-1.17578,1.35254-1.95898,2.04004-.78516.68848-1.65137,1.34961-2.60059,1.98438s-1.94141,1.21289-2.97559,1.73633c-1.03516.52246-2.06445.94922-3.08789,1.2793Z"/><path class="cls-4" d="M91.28809,35.43359c-.0752-.16016-.18652-.34668-.33594-.55957-.14941-.21387-.30957-.41895-.47949-.61621-.17188-.19727-.32617-.35449-.46484-.47168,1.45117-.54395,2.50391-1.24512,3.16016-2.10449.65625-.8584,1.02637-1.9541,1.11133-3.28809-.8418.01074-1.65039.02148-2.42383.03223s-1.43164.02441-1.97559.04004-.90723.0293-1.08789.04004l-.09668-1.87207c.12891.01074.43262.01562.91211.01562.48047,0,1.07227-.00195,1.77637-.00781.7041-.00488,1.46973-.0127,2.2959-.02344s1.65039-.02148,2.47266-.03223c.82031-.01074,1.58594-.02441,2.2959-.04004.70898-.01562,1.30566-.03223,1.79199-.04785.48438-.0166.79199-.0293.91992-.04004l.01562,1.8877h-2.36719c-.6084,0-1.26953.00586-1.98438.0166h-.54492c-.0957,1.73828-.55078,3.16992-1.36719,4.2959-.81641,1.125-2.02344,2.05078-3.62402,2.77539ZM90.98438,24.64941l-.1123-1.8877h.7998c.40527,0,.89062-.00488,1.45605-.01562s1.15723-.02148,1.77637-.03223c.61816-.01074,1.20996-.02441,1.77539-.04004s1.04883-.0293,1.44824-.04004.65918-.02148.77637-.03223l.03125,1.87207c-.13867-.01074-.4082-.0127-.80762-.00781-.39941.00586-.87402.01367-1.42383.02441s-1.12598.02148-1.72754.03125c-.60352.01074-1.18164.02441-1.73633.04004-.55469.0166-1.03223.03223-1.43164.04883-.40039.01562-.67578.0293-.82422.03906Z"/><path class="cls-4" d="M106.87207,35.35352c-.13867-.24512-.32031-.53613-.54395-.87207-.22461-.33594-.44336-.58887-.65625-.75977,1.04492-.41602,1.89844-.88184,2.56055-1.39941.66016-.51758,1.16504-1.13379,1.51172-1.84863.3457-.71387.55176-1.56738.61523-2.55957-.86328,0-1.68945.00293-2.47949.00781-.79004.00586-1.46191.01074-2.0166.01562-.55469.00586-.91699.01367-1.08789.02441l-.08008-1.91992c.17188.01074.53906.01855,1.10449.02344.56543.00586,1.25098.01074,2.05566.0166.80566.00488,1.65039.00781,2.53711.00781v-3.74414h1.9834v3.74414c.78906,0,1.52832-.00293,2.21582-.00781.6875-.00586,1.27148-.01074,1.75195-.0166.48047-.00488.80078-.0127.96094-.02344v1.91992c-.12891-.01074-.43262-.01855-.91211-.02441-.48047-.00488-1.07227-.00977-1.77637-.01562-.7041-.00488-1.45605-.00781-2.25684-.00781-.06348,1.17285-.29004,2.22656-.67969,3.16016-.38867.93359-.97559,1.75488-1.75977,2.46387-.7832.70898-1.7998,1.31445-3.04785,1.81543Z"/><path class="cls-4" d="M124.35938,27.20996c-.13867-.14941-.33301-.3252-.58398-.52832-.25-.20215-.52734-.41602-.83203-.63965-.30273-.22461-.59961-.42969-.88672-.61621-.28906-.18652-.53906-.32812-.75195-.42383l1.2793-1.61621c.21289.11719.46387.2666.75195.44824s.58398.37891.88867.5918c.30273.21387.58887.42383.85547.63184s.48047.39258.64062.55273l-1.36133,1.59961ZM122.64844,34.26562l-1.08789-1.96777c.75684-.16016,1.55371-.42383,2.3916-.79199.83691-.36816,1.67676-.7998,2.52051-1.2959.8418-.49609,1.6416-1.0293,2.39941-1.59961.75684-.57129,1.44238-1.14941,2.05566-1.73633s1.1123-1.14648,1.49609-1.67969c.04297.18066.11523.40527.2168.67188.10059.2666.20996.52539.32715.77539.11816.25098.21875.44531.30371.58398-.52246.67188-1.17578,1.35254-1.95898,2.04004-.78516.68848-1.65137,1.34961-2.60059,1.98438s-1.94141,1.21289-2.97559,1.73633c-1.03516.52246-2.06445.94922-3.08789,1.2793Z"/><path class="cls-4" d="M137.81641,34.49023c-.13867-.23535-.32324-.51758-.55273-.84863-.22852-.33008-.46094-.5918-.69531-.78418.7998-.35156,1.59961-.78906,2.39941-1.31152s1.56543-1.1123,2.2959-1.76758c.73047-.65625,1.39746-1.34961,2-2.08008.60352-.73047,1.1123-1.47461,1.52832-2.23242-.52246.03223-1.09668.06934-1.71973.1123-.62402.04297-1.24316.08203-1.85645.12012-.61328.03711-1.16797.07422-1.66406.11133-.49512.03809-.87793.06738-1.14355.08789l-.22461-2.03125c.26758,0,.66699-.00586,1.2002-.0166.53418-.00977,1.13086-.0293,1.79199-.05566.66211-.02637,1.32031-.05566,1.97656-.08789s1.24805-.07227,1.77539-.12012c.52832-.04785.91992-.09375,1.17578-.13574l1.29688.83203c-.25586.74609-.58691,1.47949-.99219,2.19922-.40625.7207-.86426,1.41113-1.37598,2.07227.37305.28809.77051.61328,1.19238.97656.41992.3623.83398.73535,1.23926,1.11914.40527.38477.77832.75293,1.12012,1.10449s.62402.66699.84766.94434c-.2666.16992-.54883.3916-.84766.66406-.29883.27148-.56055.53027-.78418.77539-.20215-.28809-.46387-.61621-.78418-.9834-.32031-.36816-.66406-.74121-1.03125-1.12012-.36816-.37891-.73926-.74707-1.1123-1.10449-.37402-.35742-.72559-.6748-1.05566-.95215-.88574.9502-1.8457,1.80859-2.88086,2.57617-1.03418.76855-2.07422,1.41406-3.11914,1.93652Z"/><rect class="cls-4" x="27.73438" y="25.8772" width="7.63892" height="7.03809"/><g class="cls-6"><g class="cls-1"><g class="cls-5"><path class="cls-4" d="M41.60083,33.55042h-20.09338c-.67151,0-1.21594-.54443-1.21594-1.21558,0-.67139.54443-1.21582,1.21594-1.21582h20.09338c.67139,0,1.21558.54443,1.21558,1.21582,0,.67114-.54419,1.21558-1.21558,1.21558"/><path class="cls-4" d="M35.73267,25.7533l-6.6394-6.6394-2.2782,2.27783-2.41772-9.84009,9.84009,2.41821-2.2782,2.27759,6.63989,6.6394-2.86646,2.86646ZM49.22571,7.38098H13.88245c-.56653,0-1.02563.45898-1.02563,1.02539v18.9834c0,.56641.45911,1.02563,1.02563,1.02563h35.34326c.56653,0,1.02563-.45923,1.02563-1.02563V8.40637c0-.56641-.45911-1.02539-1.02563-1.02539"/></g></g></g></g></svg>