<svg id="グループ_808" data-name="グループ 808" xmlns="http://www.w3.org/2000/svg" xmlns:xlink="http://www.w3.org/1999/xlink" width="220.986" height="188.235" viewBox="0 0 220.986 188.235">
  <defs>
    <clipPath id="clip-path">
      <rect id="長方形_326" data-name="長方形 326" width="220.986" height="188.235" fill="#fff"/>
    </clipPath>
  </defs>
  <path id="パス_554" data-name="パス 554" d="M90.859,118.19,70.281,153.834l19.862,34.4H90.9l-19.862-34.4,20.2-34.99h40.4l20.036,34.7h.756L132.018,118.19Z" fill="#fff"/>
  <path id="パス_555" data-name="パス 555" d="M169.916,63.658l.1.164L141.4,113.37l-.094.164h-57.4L55.729,64.723h.757l27.8,48.157h56.646l28.322-49.058L142.045,16.694h.756Z" fill="#fff"/>
  <path id="パス_556" data-name="パス 556" d="M159.249,22.808,138.67,58.451l.046.08h.757l-.046-.08,20.2-34.989h40.4l20.2,34.989-.045.08h.756l.046-.08L200.409,22.808Z" fill="#fff"/>
  <path id="パス_557" data-name="パス 557" d="M90.785,0l23.141,40.082L90.457,80.732h.757l23.469-40.65L91.541,0Z" fill="#fff"/>
  <path id="パス_558" data-name="パス 558" d="M133.585,40.161l-33.347,57.76H33.491L.757,41.221H0L33.113,98.576h67.5l.1-.164,33.631-58.251Z" fill="#fff"/>
  <g id="グループ_807" data-name="グループ 807">
    <g id="グループ_806" data-name="グループ 806" clip-path="url(#clip-path)">
      <path id="パス_559" data-name="パス 559" d="M113.754,8.022a3.284,3.284,0,1,0-3.284-3.284,3.284,3.284,0,0,0,3.284,3.284" fill="#fff"/>
      <path id="パス_560" data-name="パス 560" d="M142.8,19.978a3.284,3.284,0,1,0-3.284-3.284,3.284,3.284,0,0,0,3.284,3.284" fill="#fff"/>
      <path id="パス_561" data-name="パス 561" d="M134.825,103.686a3.284,3.284,0,1,0-3.284-3.284,3.284,3.284,0,0,0,3.284,3.284" fill="#fff"/>
      <path id="パス_562" data-name="パス 562" d="M71.079,137.21a3.284,3.284,0,1,0-3.284-3.284,3.284,3.284,0,0,0,3.284,3.284" fill="#fff"/>
      <path id="パス_563" data-name="パス 563" d="M90.458,85.795a5.063,5.063,0,1,0-5.063-5.063,5.063,5.063,0,0,0,5.063,5.063" fill="#fff"/>
      <path id="パス_564" data-name="パス 564" d="M138.669,63.514a5.063,5.063,0,1,0-5.063-5.063,5.063,5.063,0,0,0,5.063,5.063" fill="#fff"/>
      <path id="パス_565" data-name="パス 565" d="M134.342,41.889a1.728,1.728,0,1,0-1.728-1.728,1.727,1.727,0,0,0,1.728,1.728" fill="#fff"/>
    </g>
  </g>
</svg>
