<svg id="グループ_805" data-name="グループ 805" xmlns="http://www.w3.org/2000/svg" xmlns:xlink="http://www.w3.org/1999/xlink" width="254.262" height="259.115" viewBox="0 0 254.262 259.115">
  <defs>
    <clipPath id="clip-path">
      <rect id="長方形_325" data-name="長方形 325" width="254.262" height="259.115" fill="none"/>
    </clipPath>
  </defs>
  <path id="パス_541" data-name="パス 541" d="M33.066,95.508l.046-.08h.757l-.046.08,20.2,34.989h40.4l20.2-34.989-.047-.08h.757l.047.08L94.8,131.151H53.644Z" fill="#fff"/>
  <path id="パス_542" data-name="パス 542" d="M96.029,17.843h.756L73.317,58.492,96.155,98.051h-.121v.524H95.7L72.561,58.492Z" fill="#fff"/>
  <path id="パス_543" data-name="パス 543" d="M86.626,0l-.094.163-33.656,58.3.094.163,33.656,58.294h61.652v-.654H87l-33.373-57.8L87,.654h66.747l32.734,56.7h.757L154.13,0Z" fill="#fff"/>
  <path id="パス_544" data-name="パス 544" d="M220.5,69.479v1.288l33.007,57.173L220.5,185.11V186.4h.013l.094-.164,33.657-58.294-.1-.163-33.656-58.3Z" fill="#fff"/>
  <path id="パス_545" data-name="パス 545" d="M91.724,249.669v.677h-.365l-23.211-40.2,24.19-41.9h43.608v.654H92.717L68.9,210.143Z" fill="#fff"/>
  <path id="パス_546" data-name="パス 546" d="M79.214,157.858,49.027,210.143l.1.164L77.3,259.115h.756L49.784,210.143,79.97,157.858Z" fill="#fff"/>
  <path id="パス_547" data-name="パス 547" d="M129.857,127.652h.757l25.509,44.183h51.256l25.628-44.388L207.379,83.058H156.123l-.012.02V82.4h51.646l25.912,44.879.094.164-25.911,44.879-.1.164H155.744Z" fill="#fff"/>
  <path id="パス_548" data-name="パス 548" d="M20.579,113.412,0,149.055l.045.08H.8l-.046-.08,20.2-34.989h40.4l20.2,34.989-.046.08h.757l.046-.08L61.739,113.412Z" fill="#fff"/>
  <g id="グループ_804" data-name="グループ 804">
    <g id="グループ_803" data-name="グループ 803" clip-path="url(#clip-path)">
      <path id="パス_549" data-name="パス 549" d="M114.625,100.571a5.063,5.063,0,1,0-5.063-5.063,5.063,5.063,0,0,0,5.063,5.063" fill="#fff"/>
      <path id="パス_550" data-name="パス 550" d="M220.5,190.172a5.063,5.063,0,1,0-5.063-5.063,5.063,5.063,0,0,0,5.063,5.063" fill="#fff"/>
      <path id="パス_551" data-name="パス 551" d="M147.546,120.571a3.882,3.882,0,1,0-3.883-3.883,3.883,3.883,0,0,0,3.883,3.883" fill="#fff"/>
      <path id="パス_552" data-name="パス 552" d="M96.029,19.571A1.728,1.728,0,1,0,94.3,17.843a1.728,1.728,0,0,0,1.728,1.728" fill="#fff"/>
      <path id="パス_553" data-name="パス 553" d="M79.214,159.586a1.728,1.728,0,1,0-1.727-1.728,1.728,1.728,0,0,0,1.727,1.728" fill="#fff"/>
    </g>
  </g>
</svg>
