<?xml version="1.0" encoding="utf-8"?>
<!-- Generator: Adobe Illustrator 28.2.0, SVG Export Plug-In . SVG Version: 6.00 Build 0)  -->
<svg version="1.1" id="グループ_811" xmlns="http://www.w3.org/2000/svg" xmlns:xlink="http://www.w3.org/1999/xlink" x="0px"
	 y="0px" viewBox="0 0 258 211.5" style="enable-background:new 0 0 258 211.5;" xml:space="preserve">
<style type="text/css">
	.st0{fill:#FFFFFF;}
	.st1{clip-path:url(#SVGID_00000177471064716145438480000003631142117398221502_);}
</style>
<path id="パス_566" class="st0" d="M180.5,95.8l-33,57.2l0.1,0.2l33.7,58.3h64.1v-0.7h-63.8L148.3,153l33-57.2H180.5z"/>
<path id="パス_567" class="st0" d="M238.4,115.9h-43.2v0.7h43.6L258,83.3h-0.6V83L238.4,115.9z"/>
<path id="パス_568" class="st0" d="M190.1,136.3h37.3l17.4,30.2h-0.8L227,137h-36.5l-18.3,31.7l0.2,0.3h-0.8l-0.2-0.3L190.1,136.3
	z"/>
<g id="グループ_810">
	<g>
		<defs>
			<rect id="SVGID_1_" x="128" width="130" height="211.5"/>
		</defs>
		<clipPath id="SVGID_00000105386952938659575290000000120843571223636918_">
			<use xlink:href="#SVGID_1_"  style="overflow:visible;"/>
		</clipPath>
		<g id="グループ_809" style="clip-path:url(#SVGID_00000105386952938659575290000000120843571223636918_);">
			<path id="パス_569" class="st0" d="M196.3,119.5c1.8,0,3.3-1.5,3.3-3.3s-1.5-3.3-3.3-3.3c-1.8,0-3.3,1.5-3.3,3.3v0
				C193.1,118.1,194.5,119.5,196.3,119.5"/>
			<path id="パス_570" class="st0" d="M180.5,100.8c2.8,0,5.1-2.3,5.1-5.1c0-2.8-2.3-5.1-5.1-5.1c-2.8,0-5.1,2.3-5.1,5.1
				S177.7,100.8,180.5,100.8L180.5,100.8"/>
			<path id="パス_571" class="st0" d="M170.7,93.5v0.7h-0.4L147.1,54l24.2-41.9h43.6v0.7h-43.2L147.9,54L170.7,93.5z"/>
			<path id="パス_572" class="st0" d="M128.1,54.2L128,54l30.2-52.3h0.8L128.8,54l28.3,49h-0.8L128.1,54.2z"/>
			<path id="パス_573" class="st0" d="M165.2,147.8h0.8L196,95.6l0.1-0.2l-28.3-49h-0.8l28.3,49L165.2,147.8z"/>
			<path id="パス_574" class="st0" d="M156.7,107.9c2.8,0,5.1-2.3,5.1-5.1c0-2.8-2.3-5.1-5.1-5.1s-5.1,2.3-5.1,5.1
				S153.9,107.9,156.7,107.9C156.7,107.9,156.7,107.9,156.7,107.9"/>
			<path id="パス_575" class="st0" d="M210.4,129.3c2.8,0,5.1-2.3,5.1-5.1s-2.3-5.1-5.1-5.1c-2.8,0-5.1,2.3-5.1,5.1
				S207.6,129.3,210.4,129.3L210.4,129.3"/>
			<path id="パス_576" class="st0" d="M165.2,152.8c2.8,0,5.1-2.3,5.1-5.1s-2.3-5.1-5.1-5.1s-5.1,2.3-5.1,5.1
				S162.4,152.8,165.2,152.8L165.2,152.8"/>
			<path id="パス_577" class="st0" d="M166.9,36.3c1,0,1.7-0.8,1.7-1.7s-0.8-1.7-1.7-1.7c-1,0-1.7,0.8-1.7,1.7
				C165.2,35.5,166,36.3,166.9,36.3"/>
			<path id="パス_578" class="st0" d="M167.3,48.2c1,0,1.7-0.8,1.7-1.7s-0.8-1.7-1.7-1.7s-1.7,0.8-1.7,1.7c0,0,0,0,0,0
				C165.6,47.5,166.4,48.2,167.3,48.2"/>
			<path id="パス_579" class="st0" d="M158.2,3.5c1,0,1.7-0.8,1.7-1.7S159.2,0,158.2,0s-1.7,0.8-1.7,1.7c0,0,0,0,0,0
				C156.5,2.7,157.2,3.5,158.2,3.5"/>
		</g>
	</g>
</g>
</svg>
