<svg id="グループ_814" data-name="グループ 814" xmlns="http://www.w3.org/2000/svg" xmlns:xlink="http://www.w3.org/1999/xlink" width="226.049" height="116.817" viewBox="0 0 226.049 116.817">
  <defs>
    <clipPath id="clip-path">
      <rect id="長方形_328" data-name="長方形 328" width="226.049" height="116.817" fill="#fff"/>
    </clipPath>
  </defs>
  <path id="パス_580" data-name="パス 580" d="M147.108,19.977l27.209,47.128-28.322,49.058H89.35l-27.8-48.157h-.757l28.179,48.811h57.4l.094-.164,28.606-49.548-.1-.164L147.864,19.977Z" fill="#fff"/>
  <path id="パス_581" data-name="パス 581" d="M164.312,26.091l-20.58,35.644.047.08h.756l-.046-.08,20.2-34.99h40.4l20.2,34.99-.046.08H226l.045-.08L205.471,26.091Z" fill="#fff"/>
  <path id="パス_582" data-name="パス 582" d="M119.745,43.366,96.276,84.015H95.52l23.468-40.649L95.847,3.283H96.6Z" fill="#fff"/>
  <path id="パス_583" data-name="パス 583" d="M5.063,44.5H5.82l32.735,56.7H105.3l33.347-57.759h.757l-33.631,58.25-.1.164h-67.5Z" fill="#fff"/>
  <g id="グループ_813" data-name="グループ 813">
    <g id="グループ_812" data-name="グループ 812" clip-path="url(#clip-path)">
      <path id="パス_584" data-name="パス 584" d="M95.848,6.568a3.284,3.284,0,1,0-3.284-3.284,3.284,3.284,0,0,0,3.284,3.284" fill="#fff"/>
      <path id="パス_585" data-name="パス 585" d="M118.817,11.305a3.284,3.284,0,1,0-3.284-3.284,3.284,3.284,0,0,0,3.284,3.284" fill="#fff"/>
      <path id="パス_586" data-name="パス 586" d="M147.864,23.261a3.284,3.284,0,1,0-3.284-3.284,3.284,3.284,0,0,0,3.284,3.284" fill="#fff"/>
      <path id="パス_587" data-name="パス 587" d="M95.52,89.078a5.063,5.063,0,1,0-5.063-5.063,5.063,5.063,0,0,0,5.063,5.063" fill="#fff"/>
      <path id="パス_588" data-name="パス 588" d="M5.063,49.567A5.063,5.063,0,1,0,0,44.5a5.063,5.063,0,0,0,5.063,5.063" fill="#fff"/>
      <path id="パス_589" data-name="パス 589" d="M143.732,66.8a5.063,5.063,0,1,0-5.063-5.063,5.063,5.063,0,0,0,5.063,5.063" fill="#fff"/>
      <path id="パス_590" data-name="パス 590" d="M139.4,45.172a1.728,1.728,0,1,0-1.728-1.728,1.727,1.727,0,0,0,1.728,1.728" fill="#fff"/>
    </g>
  </g>
</svg>
