<?xml version="1.0" encoding="utf-8"?>
<!-- Generator: Adobe Illustrator 28.2.0, SVG Export Plug-In . SVG Version: 6.00 Build 0)  -->
<svg version="1.1" id="_レイヤー_2" xmlns="http://www.w3.org/2000/svg" xmlns:xlink="http://www.w3.org/1999/xlink" x="0px"
	 y="0px" viewBox="0 0 54 54" style="enable-background:new 0 0 54 54;" xml:space="preserve">
<style type="text/css">
	.st0{opacity:0.502;fill:#008DB7;enable-background:new    ;}
</style>
<g id="_レイヤー_1-2">
	<path class="st0" d="M31.6,23.8c-2.4,2.1-2.5,2.7-2.5,4.8h-4.7c0-3.2,0.2-4.6,2.7-6.7c2.6-2.2,3-2.6,3-3.9c0-1.7-1.4-2.9-3.6-2.9
		c-0.6,0-3.1,0-5.7,2.8l-1.6-4.3c2.2-1.9,4.6-2.9,7.5-2.9c5.3,0,8.1,3.6,8.1,7.1C34.8,20.9,33.1,22.4,31.6,23.8 M24.2,30.6h5v4.9h-5
		V30.6z M50,23.1C50,10.4,39.7,0,27,0C14.3,0,4,10.4,4,23.1c0,11,7.6,20.2,17.8,22.5l4.4,7.8c0.2,0.3,0.5,0.5,0.8,0.5
		s0.7-0.2,0.8-0.5l4.4-7.8C42.4,43.3,50,34.1,50,23.1"/>
</g>
</svg>
