<?xml version="1.0" encoding="utf-8"?>
<!-- Generator: Adobe Illustrator 28.2.0, SVG Export Plug-In . SVG Version: 6.00 Build 0)  -->
<svg version="1.1" id="_レイヤー_2" xmlns="http://www.w3.org/2000/svg" xmlns:xlink="http://www.w3.org/1999/xlink" x="0px"
	 y="0px" viewBox="0 0 54 54" style="enable-background:new 0 0 54 54;" xml:space="preserve">
<style type="text/css">
	.st0{opacity:0.302;fill:#008DB7;enable-background:new    ;}
</style>
<g id="_レイヤー_1-2">
	<path class="st0" d="M0,16.4C14.7,1.4,39.6,1,54,16.5c-1.5,1.5-3,3.1-4.4,4.6c-12.4-12.8-32.8-12.6-45,0c-1.5-1.5-3-3-4.5-4.5
		C0,16.6,0,16.4,0,16.4z"/>
	<path class="st0" d="M45.8,25c-1.5,1.5-3,3.1-4.6,4.7c-7.5-7.9-20.8-8-28.3,0c-1.5-1.6-3-3.1-4.6-4.7C17.6,14.7,35.4,13.8,45.8,25"
		/>
	<path class="st0" d="M21.1,38.2c-1.5-1.6-3-3.1-4.4-4.6c4.6-5.6,14.9-6.5,20.8-0.1c-1.5,1.5-3,3.1-4.4,4.6
		C28.3,34.9,25.3,34.9,21.1,38.2"/>
	<path class="st0" d="M31.3,44.8c-0.1,5.5-8.4,5.6-8.5,0.1C22.7,39.4,31.3,39.4,31.3,44.8"/>
</g>
</svg>
