<?xml version="1.0" encoding="UTF-8"?><svg id="_レイヤー_2" xmlns="http://www.w3.org/2000/svg" viewBox="0 0 53.99957 54.00001"><defs><style>.cls-1{fill:#008db7;opacity:.302;stroke-width:0px;}</style></defs><g id="_レイヤー_1-2"><path class="cls-1" d="M47.29797,9.01001c.05603-2.96204-4.60095-2.97412-4.56195-.01404-.05603,2.96204,4.60095,2.974,4.56195.01404M27.01801,40.54797c17.72296-.07703,17.68298-27.03601-.01703-27.07703-17.72296.07495-17.68097,27.03601.01703,27.07703M9.90399,0h34.21301c5.59399,1.11597,9.89697,5.3999,9.862,11.24695.02301,10.53699.03302,21.07507-.00403,31.61194-.021,6.12305-4.99097,11.09302-11.11395,11.11511-10.57501.03699-21.15002.03198-31.72504.00098-5.71899.03992-10.11096-4.36804-11.13599-9.85999V9.90295C1.09998,4.552,4.52197,1.07202,9.90399,0"/><path class="cls-1" d="M27.03998,18.04102c11.80499.29199,11.70599,17.79004-.11499,17.93604-11.72498-.34509-11.63696-17.7301.11499-17.93604"/></g></svg>