<?xml version="1.0" encoding="UTF-8"?><svg id="_レイヤー_2" xmlns="http://www.w3.org/2000/svg" viewBox="0 0 53.99975 54.00009"><defs><style>.cls-1{fill:#008db7;opacity:.302;stroke-width:0px;}</style></defs><g id="_レイヤー_1-2"><path class="cls-1" d="M48.42803,50.69505c2.95898,0,2.88501-4.66101-.078-4.56189-2.95898-.0011-2.88501,4.66089.078,4.56189M13.28899.01805c14.70593,3.96008,7.36804,13.09094,12.68994,18.12402,8.698,8.646,17.35205,17.33801,26.03003,26.005,1.53601,1.53491,2.31201,3.297,1.80603,5.48804-.95605,4.13403-5.78503,5.74487-9.03101,3.01294-8.93799-8.8269-17.78503-17.75391-26.65698-26.64893-1.64404-1.65601-3.48901-2.42114-5.83301-2.30811-7.755.57202-14.30103-7.64197-11.72302-15.03589,2.16797,2.17188,4.28198,4.22998,6.31799,6.36292.72498.75903,1.49402.94604,2.42004.67297,3.13599-.92493,5.203-2.979,6.27698-6.04895.39197-1.12195.21204-2.02893-.73206-2.91101-2.09998-1.96094-4.08496-4.04297-6.19897-6.15894C10.27398-.04091,11.63799-.02492,13.28899.01805"/><path class="cls-1" d="M36.341,21.98399c-.66296-.66992-1.23999-1.25293-2.17102-2.19495,4.14807-2.85193,7.30103-7.13696,11.06006-10.53198,1.16199-.73999.87-2.56506-.70203-2.06702-3.953,3.62305-7.61206,7.69202-11.547,11.38306-.771-.79102-1.51599-1.55603-2.36206-2.42407,4.01599-3.87891,7.90808-7.87097,11.89099-11.78101,1.927-1.88403,4.2301-2.51489,6.81909-1.66699,4.36694,1.17603,6.26294,7.31909,3.08997,10.58398-4.05603,4.15112-8.22205,8.19409-12.30603,12.23901-.67297-.68396-1.375-1.396-2.16895-2.20288,3.46399-3.54614,7.06799-7.06714,10.56897-10.59204.69702-.40405.99097-1.41602.58203-2.01099-.58801-.40906-1.60107-.12207-2.00708.57202-3.59998,3.56592-7.11292,7.15393-10.74695,10.69385"/><path class="cls-1" d="M4.23101,53.93614c-1.81396-1.36011-2.07104-1.68909-.99207-3.72803.72107-1.46509,1.16199-3.02905,2.85706-3.66003,4.86304-3.677,8.77393-8.61609,13.31201-12.71497,1.02795,1.03894,1.99902,2.02197,3.06091,3.09692-4.00793,4.2771-8.5979,8.17102-12.42395,12.56909-1.005,2.64392-3.62097,3.20386-5.81396,4.43701"/></g></svg>