<?xml version="1.0" encoding="utf-8"?>
<!-- Generator: Adobe Illustrator 28.2.0, SVG Export Plug-In . SVG Version: 6.00 Build 0)  -->
<svg version="1.1" id="_レイヤー_2" xmlns="http://www.w3.org/2000/svg" xmlns:xlink="http://www.w3.org/1999/xlink" x="0px"
	 y="0px" viewBox="0 0 54 54" style="enable-background:new 0 0 54 54;" xml:space="preserve">
<style type="text/css">
	.st0{opacity:0.302;fill:#008DB7;enable-background:new    ;}
</style>
<g id="_レイヤー_1-2">
	<path class="st0" d="M54,31.3c-1.5-2.2-2.6-5.1-4.9-6.4c-1.8-0.8-1.9-2.2-1.8-3.8c0.1-4.8,0-9.5,0-14.4H7v31.9h13.6
		c-0.3,1.5-0.6,2.9-0.9,4.5C-7,43.5,1.7,45.8,0.3,7c0-3.1,1.8-5,4.9-5c14.3,0,28.7,0,43,0C51,2,53,2.9,54,5.7V31.3z"/>
	<path class="st0" d="M32.3,30.3c5-1.8,3.3,1.9,6.3,1.9c0.6-1.4-0.3-2.1-1-3.2c5.2-2.2,3.6,3,6,1.7c1.1-1-0.4-1.8-0.8-2.8
		c6.7-1.7,8.5,10.8,10.7,15.4c-3.6,2.8-7.6,5.5-11.2,8.3c-0.6,0.4-1,0.5-1.6,0C36.2,48,30.6,46.3,25.5,44c-1.6-1.2-1.3-3.4,0.6-3.9
		c1.7-0.3,3.3-0.1,5,0.2c-2.9-4.2-5.7-8.2-8.6-12.4c-0.7-1.1-0.7-2.2,0.1-3c1.2-1.4,3.2-1,4,0.5c1.9,2.6,3.7,5.3,5.5,7.9
		c0.9,1.3,2,0.1,1.5-1.1C33.3,31.6,32.8,31.1,32.3,30.3"/>
	<path class="st0" d="M19.7,26.9c-5.1-4.7,3.5-11.2,6.5-4.8C22.9,20.5,19.1,23,19.7,26.9"/>
</g>
</svg>
