<?xml version="1.0" encoding="UTF-8"?><svg id="_レイヤー_2" xmlns="http://www.w3.org/2000/svg" viewBox="0 0 54 54"><defs><style>.cls-1{fill:#008db7;opacity:.302;stroke-width:0px;}</style></defs><g id="_レイヤー_1-2"><path class="cls-1" d="M49.44897,18.02905H4.47797v8.96191h44.97101v-8.96191ZM54,31.5c-18.00201-.08496-35.99603-.01001-54-.03418V13.53394c18.00397-.03003,35.99896.05908,54-.03394v18Z"/><path class="cls-1" d="M49.44897,40.52905H4.47797v8.96289h44.97101v-8.96289ZM54,54c-18.00201-.08496-35.99603-.01001-54-.03418v-17.93188c18.00397-.03003,35.99896.05908,54-.03394v18Z"/><path class="cls-1" d="M40.47699,0c2.909,3.66602,5.81799,7.33203,8.88898,11.2019-1.66199-.21484-4.966.59399-5.81396-.62402-1.729-1.53003-4.20502-5.72485-6.29803-6.08398-6.867-.04102-13.73395-.04102-20.60095,0-.47705.00317-1.07605.29614-1.409.65015-1.66602,1.77686-3.237,3.64307-4.90405,5.41797-1.638,1.23389-3.68695.46289-5.80298.65381C7.59601,7.35791,10.513,3.67896,13.43097,0h27.04602Z"/><path class="cls-1" d="M47.20001,22.4729c-.02802,2.91309-4.40503,2.91016-4.42999-.00195.09998-2.83691,4.32898-2.84399,4.42999.00195"/><path class="cls-1" d="M11.40302,24.71387c.60797-1.41089,1.14697-2.71191,1.73798-3.98779.69397-.82324,1.84497-.31519,2.93298-.44019-.62799,1.4541-1.18396,2.78809-1.79199,4.09912-.73596.6499-1.841.21411-2.87897.32886"/><path class="cls-1" d="M25.37897,24.71484c.65405-1.52783,1.26501-2.95483,1.883-4.39697h2.76105c-.60303,1.40112-1.15302,2.73413-1.76404,4.03906-.729.67212-1.83997.25513-2.88.35791"/><path class="cls-1" d="M11.41498,20.28491c-.61896,1.43604-1.16296,2.73511-1.74896,4.01514-.68201.80981-1.84802.271-2.92902.41284.625-1.44092,1.15997-2.7439,1.76898-4.01294.73199-.73608,1.79602-.32202,2.909-.41504"/><path class="cls-1" d="M20.72498,24.67798c.61102-1.40894,1.133-2.67896,1.72504-3.91895.69397-.83521,1.84601-.37012,2.92896-.47412-.65198,1.521-1.26196,2.94604-1.88196,4.39307h-2.77203Z"/><path class="cls-1" d="M20.73102,20.28491c-.63,1.45898-1.18201,2.79517-1.79803,4.10205-.76099.62109-1.77002.23096-2.87897.32788.63495-1.46387,1.19995-2.8208,1.83099-4.14697.76196-.54297,1.789-.19385,2.84601-.28296"/><path class="cls-1" d="M47.20001,44.97095c-.02502,2.91309-4.40302,2.91406-4.42999.00098.09796-2.83691,4.32697-2.84692,4.42999-.00098"/><path class="cls-1" d="M11.401,47.21484c.612-1.42383,1.13098-2.6958,1.716-3.93701.69202-.87183,1.815-.38379,2.94397-.49292-.62396,1.45801-1.18097,2.81616-1.80499,4.14404-.76099.5481-1.79901.19604-2.85498.28589"/><path class="cls-1" d="M25.37897,47.21484c.65405-1.52783,1.26501-2.95483,1.883-4.39697h2.76105c-.60303,1.40112-1.15302,2.73413-1.76404,4.03906-.729.67212-1.83997.25513-2.88.35791"/><path class="cls-1" d="M11.41498,42.78491c-.61896,1.43604-1.16296,2.73511-1.74896,4.01514-.68201.80981-1.84802.271-2.92902.41284.625-1.44092,1.15997-2.7439,1.76898-4.01294.73199-.73608,1.79602-.32202,2.909-.41504"/><path class="cls-1" d="M25.38098,42.78589c-.60699,1.41309-1.14502,2.71313-1.73596,3.98901-.69305.82104-1.84204.31494-2.93201.43896.62695-1.45386,1.18396-2.78687,1.78998-4.0979.73401-.6521,1.841-.21411,2.87799-.33008"/><path class="cls-1" d="M20.72498,42.78589c-.62097,1.44702-1.15698,2.75122-1.75299,4.02808-.71802.74512-1.81799.29004-2.901.40088.612-1.43481,1.16199-2.7688,1.76202-4.08179.73096-.68408,1.82599-.22705,2.89197-.34717"/></g></svg>