<?xml version="1.0" encoding="utf-8"?>
<!-- Generator: Adobe Illustrator 28.2.0, SVG Export Plug-In . SVG Version: 6.00 Build 0)  -->
<svg version="1.1" id="_レイヤー_2" xmlns="http://www.w3.org/2000/svg" xmlns:xlink="http://www.w3.org/1999/xlink" x="0px"
	 y="0px" viewBox="0 0 54 54" style="enable-background:new 0 0 54 54;" xml:space="preserve">
<style type="text/css">
	.st0{opacity:0.302;fill:#008DB7;enable-background:new    ;}
</style>
<g id="_レイヤー_1-2">
	<path class="st0" d="M0,51.8c1.5-4.9,3.1-9.7,4.5-14.7h4.6c-1,3.3-1.9,6.5-2.9,9.8h41.6C46.9,43.7,46,40.4,45,37
		c1.2,0.2,4.3-0.6,4.7,0.6c1.4,4.7,2.8,9.5,4.3,14.4c-18,0-36-0.1-54,0L0,51.8"/>
	<path class="st0" d="M9,29.4h36V7H9V29.4z M4.6,2h44.9v32.4H4.6V2z"/>
	<path class="st0" d="M22.2,44.4c0.6-2,0.7-2.5,2.7-2.4h4.4c2,0,2,0,2.5,2.4C31.8,44.4,22.2,44.4,22.2,44.4z"/>
	<rect x="11.4" y="9.5" class="st0" width="31.4" height="17.3"/>
</g>
</svg>
